<?xml version="1.0" encoding="UTF-8" ?>
<!DOCTYPE svg PUBLIC "-//W3C//DTD SVG 1.1//EN" "http://www.w3.org/Graphics/SVG/1.1/DTD/svg11.dtd">
<svg width="1024pt" height="1025pt" viewBox="0 0 1024 1025" version="1.1" xmlns="http://www.w3.org/2000/svg">
<g id="#22212bff">
<path fill="#22212b" opacity="1.00" d=" M 0.00 0.00 L 1024.00 0.00 L 1024.00 1025.00 L 0.00 1025.00 L 0.00 0.00 M 862.69 158.66 C 853.02 193.88 831.36 225.19 803.19 248.21 C 799.72 251.49 793.85 254.22 794.83 259.91 C 795.72 278.97 790.49 299.01 777.09 313.08 C 765.67 325.93 750.16 334.03 737.81 345.82 C 726.05 357.04 723.42 374.46 724.88 389.96 C 755.38 356.76 800.66 344.46 834.06 315.05 C 856.80 295.69 874.35 269.18 879.41 239.42 C 885.19 212.01 879.19 183.71 870.26 157.69 C 869.16 152.75 863.16 154.21 862.69 158.66 M 155.66 155.47 C 134.65 201.37 138.83 260.01 173.72 298.28 C 207.56 339.68 263.68 351.47 299.82 390.10 C 300.87 374.62 298.55 357.43 286.89 346.11 C 272.82 332.78 254.79 323.72 243.07 307.91 C 232.20 293.86 228.78 275.51 229.61 258.11 C 230.07 254.85 226.97 253.01 224.88 251.13 C 195.27 227.79 171.91 195.63 162.01 159.00 C 161.65 156.00 158.45 153.05 155.66 155.47 M 364.73 181.68 C 357.65 213.24 373.88 245.25 398.36 264.72 C 380.58 262.72 368.66 248.46 355.98 238.70 C 354.84 253.37 363.74 267.35 373.97 277.28 C 346.88 313.53 353.62 362.38 366.12 402.88 C 369.63 414.75 374.40 426.57 374.19 439.15 C 361.07 431.22 349.45 419.77 343.56 405.42 C 336.45 387.73 344.71 368.47 339.65 350.40 C 335.45 329.46 318.26 314.99 301.63 303.35 C 284.57 290.46 265.97 279.84 248.42 267.70 C 243.76 266.63 246.68 275.05 247.07 277.95 C 252.58 309.18 286.80 318.92 304.36 341.63 C 317.36 357.33 315.87 378.60 317.43 397.63 C 320.87 428.27 344.67 450.73 368.77 467.21 C 366.49 478.38 365.02 489.69 364.72 501.09 C 343.62 496.83 328.52 513.94 316.00 528.00 C 303.19 543.11 286.79 554.81 268.59 562.55 C 266.00 563.47 260.79 566.58 264.73 569.24 C 289.22 581.98 323.72 580.68 342.32 558.32 C 354.45 543.86 354.99 523.90 364.00 507.86 C 363.47 521.58 369.85 536.52 362.07 549.05 C 354.75 564.69 344.86 579.44 331.13 590.15 C 328.71 592.20 323.37 596.46 327.99 599.09 C 346.03 601.57 364.84 594.57 377.01 581.01 C 384.77 598.90 394.70 615.72 406.04 631.55 C 378.37 646.07 391.66 692.66 419.40 698.61 C 431.10 696.33 443.51 695.29 454.58 700.47 C 469.01 702.49 473.37 686.14 472.35 674.89 C 490.28 693.42 503.18 716.50 512.35 740.49 C 521.76 716.73 534.17 693.55 552.20 675.18 C 554.21 682.50 551.64 692.15 558.84 697.16 C 565.14 702.57 573.79 700.28 580.35 696.73 C 588.30 698.06 596.26 695.54 604.01 698.64 C 632.78 694.48 646.44 645.78 618.34 631.58 C 630.25 616.11 639.69 598.93 647.34 581.00 C 659.90 593.84 682.96 605.69 699.24 596.07 C 684.60 582.94 670.81 568.43 663.04 549.98 C 654.52 537.19 661.62 521.88 660.45 507.78 C 668.12 520.76 669.42 536.33 676.43 549.63 C 692.02 579.86 733.67 583.86 761.28 568.78 C 756.62 558.42 740.70 557.71 732.38 549.62 C 707.24 534.97 694.03 496.26 660.04 501.17 C 659.49 489.76 658.17 478.40 656.08 467.17 C 677.29 452.12 698.64 433.50 705.26 407.22 C 710.38 389.17 705.27 369.27 713.99 352.01 C 722.37 334.20 739.91 323.59 754.86 311.85 C 769.05 301.84 780.04 284.50 777.98 266.76 C 754.58 281.83 730.59 296.32 708.93 313.92 C 695.98 324.34 685.90 339.12 683.76 355.85 C 681.05 371.94 687.15 388.72 681.41 404.41 C 675.77 419.25 664.01 431.39 650.27 439.03 C 650.19 424.71 656.68 411.65 660.01 398.01 C 671.28 359.05 676.85 311.84 650.37 277.66 C 660.23 267.35 670.58 253.21 668.01 238.36 C 655.90 249.41 643.45 262.29 625.97 264.88 C 650.86 245.55 666.64 213.05 659.60 181.45 C 655.79 176.40 652.48 184.40 651.79 187.83 C 640.02 222.85 608.34 245.68 575.70 259.71 C 545.73 274.50 520.89 301.26 512.47 334.05 C 502.06 296.20 471.32 267.97 435.95 253.08 C 406.08 239.77 380.61 214.74 370.96 183.04 C 370.51 180.03 366.01 178.44 364.73 181.68 M 431.89 237.35 C 448.71 243.37 467.41 245.58 481.87 257.11 C 496.35 266.59 504.38 282.35 512.36 297.11 C 517.94 288.90 520.90 279.10 527.54 271.55 C 542.66 250.32 569.18 244.44 592.48 237.36 C 543.65 210.45 480.72 210.45 431.89 237.35 M 120.83 262.81 C 116.95 285.82 118.86 309.88 125.96 332.10 C 139.48 373.47 179.87 403.27 223.08 405.83 C 252.23 408.40 280.96 414.90 307.99 426.19 C 288.41 379.81 236.80 365.55 198.36 339.67 C 169.53 320.44 142.42 296.17 127.90 264.05 C 127.05 260.58 121.84 258.06 120.83 262.81 M 895.75 265.71 C 879.99 299.70 850.16 324.43 819.18 344.17 C 782.14 366.99 734.68 382.40 716.86 426.14 C 751.28 409.76 789.72 408.82 826.34 401.27 C 861.49 391.46 889.88 362.20 900.20 327.39 C 905.68 306.29 907.32 284.02 903.55 262.50 C 901.52 257.08 896.72 262.47 895.75 265.71 M 131.52 399.45 C 145.18 438.03 178.38 473.11 221.00 476.23 C 246.49 479.02 268.81 464.07 293.27 460.30 C 307.95 457.90 323.00 459.68 337.19 463.86 C 305.38 426.18 253.09 425.20 208.27 417.69 C 180.52 412.73 154.04 401.75 130.74 385.90 C 125.88 389.20 130.64 395.15 131.52 399.45 M 892.58 386.76 C 872.81 399.62 851.20 409.86 828.10 415.11 C 795.01 424.02 759.40 421.80 727.55 435.57 C 712.08 441.73 698.48 451.92 687.03 463.91 C 700.92 460.01 715.53 457.95 729.92 460.06 C 750.99 462.64 769.70 474.61 790.98 476.18 C 838.28 480.08 878.31 442.33 892.96 399.91 C 894.16 396.15 899.58 386.40 892.58 386.76 M 246.22 489.25 C 225.87 494.55 204.74 496.30 183.80 494.70 C 181.86 499.15 185.96 502.43 188.74 505.26 C 203.85 519.93 221.79 533.09 242.90 537.10 C 264.44 541.55 287.64 534.62 303.72 519.73 C 318.08 505.58 332.83 489.11 354.24 486.94 C 339.15 476.70 320.44 471.61 302.24 473.36 C 282.79 475.61 265.16 484.86 246.22 489.25 M 670.48 486.91 C 701.87 489.52 714.91 523.30 742.55 533.47 C 778.49 548.38 817.87 527.37 840.84 499.60 C 843.41 493.18 834.76 494.39 831.05 494.95 C 795.12 498.40 761.75 482.94 727.86 474.13 C 708.09 470.65 686.96 475.54 670.48 486.91 M 356.91 785.11 C 357.77 788.75 358.01 795.97 363.56 794.47 C 378.76 790.87 396.32 783.65 401.24 767.28 C 406.83 748.19 414.15 729.69 421.74 711.32 C 405.96 711.06 393.75 699.29 385.86 686.69 C 364.16 714.02 349.75 749.88 356.91 785.11 M 603.11 711.39 C 610.41 729.32 617.80 747.26 623.06 765.91 C 627.71 783.72 647.23 791.74 663.65 794.59 C 667.88 791.77 667.20 785.06 668.42 780.46 C 673.71 746.54 659.24 713.12 638.79 686.79 C 630.83 699.30 618.71 710.68 603.11 711.39 M 437.69 709.56 C 427.75 730.83 418.83 752.99 411.31 775.33 C 403.69 799.14 407.45 826.16 420.97 847.10 C 425.11 849.43 429.75 845.24 433.57 843.56 C 450.92 834.64 467.77 818.95 467.73 797.99 C 469.13 772.85 471.41 747.77 473.62 722.69 C 474.40 717.90 471.02 714.11 467.98 710.92 C 457.86 715.33 447.54 710.85 437.69 709.56 M 561.20 711.79 C 554.35 708.69 550.19 717.89 551.40 723.52 C 554.96 752.01 555.52 780.82 558.79 809.28 C 564.86 828.76 584.04 842.27 602.65 847.88 C 613.83 833.13 618.34 813.34 617.13 794.97 C 613.66 764.58 598.28 737.33 587.50 709.14 C 578.77 710.37 570.19 715.19 561.20 711.79 M 486.19 732.97 C 483.49 752.47 482.28 772.15 480.60 791.76 C 476.69 824.47 487.85 859.00 512.14 881.62 C 536.68 859.91 547.68 825.46 544.59 793.25 C 542.73 773.13 541.48 752.94 538.65 732.93 C 525.69 754.74 517.46 779.24 512.57 804.09 C 506.98 779.42 499.59 754.63 486.19 732.97 Z" />
<path fill="#22212b" opacity="1.00" d=" M 388.93 274.22 C 408.16 280.48 428.71 281.82 447.57 289.45 C 475.68 299.04 504.32 323.29 503.12 355.35 C 500.07 352.37 497.61 348.86 494.47 345.98 C 487.88 372.72 455.91 388.82 430.68 377.33 C 400.11 365.82 392.74 320.78 417.92 300.00 C 411.22 298.06 404.96 294.76 398.21 293.09 C 380.48 310.26 375.80 338.83 385.67 361.32 C 400.91 401.04 456.38 415.68 488.93 387.92 C 498.79 381.33 500.20 365.17 512.84 362.46 C 525.78 366.86 526.57 384.41 538.88 390.08 C 566.34 410.65 608.51 404.44 629.38 377.39 C 649.85 353.59 648.68 315.32 626.80 292.80 C 620.06 294.85 613.59 297.67 606.94 299.99 C 628.48 318.24 626.64 355.41 603.68 371.67 C 578.52 392.09 537.39 376.75 529.85 345.75 C 526.90 348.86 524.44 352.41 521.26 355.31 C 520.75 333.12 535.20 312.94 553.35 301.32 C 577.57 284.75 607.48 282.04 635.12 274.74 C 634.23 276.28 633.33 277.82 632.43 279.35 C 650.49 297.13 660.19 323.53 655.76 348.73 C 650.90 381.37 623.07 409.00 590.30 413.30 C 567.46 417.18 542.95 408.04 529.32 389.08 C 524.71 401.37 520.18 413.79 513.68 425.24 C 502.53 418.08 501.68 401.04 495.22 389.69 C 480.31 409.52 453.49 418.12 429.59 412.40 C 398.90 406.44 373.65 379.87 368.96 349.00 C 365.01 324.97 372.90 299.36 389.92 281.90 C 393.04 279.66 390.28 276.58 388.93 274.22 M 413.94 330.95 C 411.94 348.98 425.67 366.39 443.34 369.56 C 463.40 373.53 484.25 356.26 484.66 335.94 C 484.51 331.27 480.11 328.39 476.95 325.58 C 481.92 347.00 458.32 367.72 438.33 356.66 C 417.32 346.76 421.09 313.53 442.98 307.15 C 427.57 299.09 414.99 317.31 413.94 330.95 M 581.98 307.16 C 594.83 311.93 603.97 326.17 599.86 339.83 C 596.16 356.21 575.18 364.83 560.92 356.09 C 549.82 350.21 546.15 336.73 547.88 325.00 C 544.68 328.45 539.45 331.58 540.12 336.98 C 540.92 356.54 560.70 372.45 579.94 369.87 C 599.69 367.14 615.44 346.42 610.34 326.59 C 607.37 314.58 595.64 299.92 581.98 307.16 M 454.40 315.39 C 447.95 316.30 443.97 324.06 447.27 329.77 C 450.53 336.71 461.59 336.89 465.11 330.09 C 469.30 323.23 462.16 313.58 454.40 315.39 M 566.44 315.43 C 559.47 316.67 555.81 326.00 560.58 331.43 C 564.98 337.41 575.41 335.82 577.90 328.85 C 581.24 321.89 573.70 313.56 566.44 315.43 Z" />
<path fill="#22212b" opacity="1.00" d=" M 376.89 394.10 C 394.03 415.40 420.93 427.02 448.04 427.20 C 467.75 429.19 490.82 432.64 504.05 448.88 C 466.37 452.40 433.37 482.43 426.71 519.71 C 418.32 559.09 441.07 602.40 478.42 617.56 C 525.05 639.07 584.66 609.39 596.73 559.79 C 611.98 509.53 572.95 452.86 520.62 448.97 C 535.47 431.23 561.24 428.41 582.98 426.84 C 608.06 425.35 631.96 413.38 647.91 393.94 C 644.19 412.98 632.94 432.05 639.19 451.82 C 656.51 511.97 646.06 582.39 603.00 629.46 C 601.68 628.86 600.38 628.26 599.08 627.66 C 610.62 604.23 620.67 579.78 624.88 553.86 C 631.10 517.63 616.46 480.95 592.41 454.21 C 604.56 450.07 622.23 444.46 624.10 430.07 C 603.50 439.65 580.31 438.86 558.96 445.47 C 566.06 450.93 574.10 455.14 580.57 461.42 C 620.17 496.61 624.26 562.64 589.74 602.74 C 563.03 630.56 532.14 655.06 512.72 689.11 C 500.66 673.64 490.45 656.56 476.07 642.94 C 461.74 627.59 443.87 615.62 431.64 598.33 C 410.59 569.97 404.98 530.66 419.00 497.99 C 427.12 475.22 445.58 458.50 465.17 445.54 C 444.03 438.88 420.95 439.84 400.71 429.84 C 401.93 444.61 420.38 450.04 432.54 454.21 C 418.46 470.56 405.96 489.07 401.61 510.61 C 391.91 551.21 407.90 592.14 425.86 628.01 C 423.75 628.67 421.12 629.73 419.61 627.42 C 377.89 579.67 367.87 509.75 386.07 450.05 C 391.00 430.77 380.43 412.59 376.89 394.10 Z" />
<path fill="#22212b" opacity="1.00" d=" M 501.05 463.09 C 508.13 460.40 516.18 461.38 523.56 462.41 C 526.29 470.21 526.67 480.73 536.78 482.26 C 545.70 489.66 554.08 470.41 561.95 480.09 C 565.95 485.10 576.58 490.32 570.62 497.61 C 566.91 502.52 563.65 508.31 567.90 514.04 C 569.27 523.45 580.26 521.45 586.38 525.64 C 587.86 532.73 587.89 540.31 586.44 547.41 C 579.90 551.34 568.94 550.06 567.65 559.79 C 561.44 567.78 572.02 574.17 572.65 581.73 C 568.32 587.43 563.12 593.01 557.01 596.79 C 549.68 593.98 542.69 585.18 534.67 591.67 C 525.33 593.40 527.53 604.31 523.35 610.46 C 516.20 612.14 507.94 612.76 501.06 609.95 C 497.78 603.21 498.95 592.97 489.44 591.49 C 481.70 585.03 475.11 594.31 467.96 596.76 C 461.43 593.23 455.89 587.22 452.01 580.94 C 453.98 573.58 462.86 567.09 456.82 559.22 C 455.14 550.20 444.80 550.83 438.14 547.68 C 436.91 540.26 436.94 532.67 438.14 525.26 C 445.55 522.29 456.15 522.42 457.41 512.39 C 464.46 503.59 445.88 495.68 454.92 487.91 C 460.16 483.47 466.00 472.43 473.49 479.50 C 478.43 484.00 484.65 485.74 490.31 481.33 C 499.18 479.61 497.57 469.34 501.05 463.09 M 509.47 494.47 C 476.13 495.00 457.40 539.70 479.98 564.01 C 499.29 589.18 543.45 580.74 552.37 550.38 C 562.56 523.35 538.48 491.23 509.47 494.47 Z" />
<path fill="#22212b" opacity="1.00" d=" M 506.36 508.38 C 531.15 501.80 551.29 534.52 535.04 554.03 C 524.52 568.96 499.49 569.12 489.29 553.73 C 477.05 538.00 486.66 512.04 506.36 508.38 Z" />
<path fill="#22212b" opacity="1.00" d=" M 424.12 647.97 C 426.76 634.70 446.32 633.68 447.95 648.03 C 452.79 643.67 461.22 642.75 464.90 649.06 C 469.89 658.56 459.23 666.76 459.45 676.35 C 458.37 679.95 460.97 689.39 454.63 687.45 C 446.40 682.26 445.28 671.53 443.49 662.80 C 438.19 669.08 441.71 678.15 438.57 684.79 C 428.51 683.52 426.45 671.44 423.10 663.68 C 418.55 670.61 424.04 679.13 421.72 685.94 C 406.64 682.41 400.57 662.06 405.72 648.71 C 409.06 640.88 419.51 641.97 424.12 647.97 Z" />
<path fill="#22212b" opacity="1.00" d=" M 576.76 647.81 C 578.78 634.06 598.08 634.43 600.40 647.82 C 605.59 641.05 617.35 641.19 619.67 650.38 C 623.37 663.29 616.94 684.76 601.66 685.28 C 602.54 678.17 605.44 670.20 601.25 663.60 C 598.41 671.49 595.58 685.38 584.80 684.28 C 584.58 677.05 585.58 669.11 581.23 662.81 C 579.42 671.47 578.39 681.98 570.32 687.31 C 565.53 689.76 565.84 683.01 565.69 680.04 C 566.06 670.62 559.43 663.00 558.19 654.07 C 558.20 644.43 570.52 642.00 576.76 647.81 Z" />
</g>
<g id="#f6f7fcff">
<path fill="#f6f7fc" opacity="1.00" d=" M 862.69 158.66 C 863.16 154.21 869.16 152.75 870.26 157.69 C 879.19 183.71 885.19 212.01 879.41 239.42 C 874.35 269.18 856.80 295.69 834.06 315.05 C 800.66 344.46 755.38 356.76 724.88 389.96 C 723.42 374.46 726.05 357.04 737.81 345.82 C 750.16 334.03 765.67 325.93 777.09 313.08 C 790.49 299.01 795.72 278.97 794.83 259.91 C 793.85 254.22 799.72 251.49 803.19 248.21 C 831.36 225.19 853.02 193.88 862.69 158.66 Z" />
<path fill="#f6f7fc" opacity="1.00" d=" M 155.66 155.47 C 158.45 153.05 161.65 156.00 162.01 159.00 C 171.91 195.63 195.27 227.79 224.88 251.13 C 226.97 253.01 230.07 254.85 229.61 258.11 C 228.78 275.51 232.20 293.86 243.07 307.91 C 254.79 323.72 272.82 332.78 286.89 346.11 C 298.55 357.43 300.87 374.62 299.82 390.10 C 263.68 351.47 207.56 339.68 173.72 298.28 C 138.83 260.01 134.65 201.37 155.66 155.47 Z" />
<path fill="#f6f7fc" opacity="1.00" d=" M 364.73 181.68 C 366.01 178.44 370.51 180.03 370.96 183.04 C 380.61 214.74 406.08 239.77 435.95 253.08 C 471.32 267.97 502.06 296.20 512.47 334.05 C 520.89 301.26 545.73 274.50 575.70 259.71 C 608.34 245.68 640.02 222.85 651.79 187.83 C 652.48 184.40 655.79 176.40 659.60 181.45 C 666.64 213.05 650.86 245.55 625.97 264.88 C 643.45 262.29 655.90 249.41 668.01 238.36 C 670.58 253.21 660.23 267.35 650.37 277.66 C 676.85 311.84 671.28 359.05 660.01 398.01 C 656.68 411.65 650.19 424.71 650.27 439.03 C 664.01 431.39 675.77 419.25 681.41 404.41 C 687.15 388.72 681.05 371.94 683.76 355.85 C 685.90 339.12 695.98 324.34 708.93 313.92 C 730.59 296.32 754.58 281.83 777.98 266.76 C 780.04 284.50 769.05 301.84 754.86 311.85 C 739.91 323.59 722.37 334.20 713.99 352.01 C 705.27 369.27 710.38 389.17 705.26 407.22 C 698.64 433.50 677.29 452.12 656.08 467.17 C 658.17 478.40 659.49 489.76 660.04 501.17 C 694.03 496.26 707.24 534.97 732.38 549.62 C 740.70 557.71 756.62 558.42 761.28 568.78 C 733.67 583.86 692.02 579.86 676.43 549.63 C 669.42 536.33 668.12 520.76 660.45 507.78 C 661.62 521.88 654.52 537.19 663.04 549.98 C 670.81 568.43 684.60 582.94 699.24 596.07 C 682.96 605.69 659.90 593.84 647.34 581.00 C 639.69 598.93 630.25 616.11 618.34 631.58 C 646.44 645.78 632.78 694.48 604.01 698.64 C 596.26 695.54 588.30 698.06 580.35 696.73 C 573.79 700.28 565.14 702.57 558.84 697.16 C 551.64 692.15 554.21 682.50 552.20 675.18 C 534.17 693.55 521.76 716.73 512.35 740.49 C 503.18 716.50 490.28 693.42 472.35 674.89 C 473.37 686.14 469.01 702.49 454.58 700.47 C 443.51 695.29 431.10 696.33 419.40 698.61 C 391.66 692.66 378.37 646.07 406.04 631.55 C 394.70 615.72 384.77 598.90 377.01 581.01 C 364.84 594.57 346.03 601.57 327.99 599.09 C 323.37 596.46 328.71 592.20 331.13 590.15 C 344.86 579.44 354.75 564.69 362.07 549.05 C 369.85 536.52 363.47 521.58 364.00 507.86 C 354.99 523.90 354.45 543.86 342.32 558.32 C 323.72 580.68 289.22 581.98 264.73 569.24 C 260.79 566.58 266.00 563.47 268.59 562.55 C 286.79 554.81 303.19 543.11 316.00 528.00 C 328.52 513.94 343.62 496.83 364.72 501.09 C 365.02 489.69 366.49 478.38 368.77 467.21 C 344.67 450.73 320.87 428.27 317.43 397.63 C 315.87 378.60 317.36 357.33 304.36 341.63 C 286.80 318.92 252.58 309.18 247.07 277.95 C 246.68 275.05 243.76 266.63 248.42 267.70 C 265.97 279.84 284.57 290.46 301.63 303.35 C 318.26 314.99 335.45 329.46 339.65 350.40 C 344.71 368.47 336.45 387.73 343.56 405.42 C 349.45 419.77 361.07 431.22 374.19 439.15 C 374.40 426.57 369.63 414.75 366.12 402.88 C 353.62 362.38 346.88 313.53 373.97 277.28 C 363.74 267.35 354.84 253.37 355.98 238.70 C 368.66 248.46 380.58 262.72 398.36 264.72 C 373.88 245.25 357.65 213.24 364.73 181.68 M 388.93 274.22 C 390.28 276.58 393.04 279.66 389.92 281.90 C 372.90 299.36 365.01 324.97 368.96 349.00 C 373.65 379.87 398.90 406.44 429.59 412.40 C 453.49 418.12 480.31 409.52 495.22 389.69 C 501.68 401.04 502.53 418.08 513.68 425.24 C 520.18 413.79 524.71 401.37 529.32 389.08 C 542.95 408.04 567.46 417.18 590.30 413.30 C 623.07 409.00 650.90 381.37 655.76 348.73 C 660.19 323.53 650.49 297.13 632.43 279.35 C 633.33 277.82 634.23 276.28 635.12 274.74 C 607.48 282.04 577.57 284.75 553.35 301.32 C 535.20 312.94 520.75 333.12 521.26 355.31 C 524.44 352.41 526.90 348.86 529.85 345.75 C 537.39 376.75 578.52 392.09 603.68 371.67 C 626.64 355.41 628.48 318.24 606.94 299.99 C 613.59 297.67 620.06 294.85 626.80 292.80 C 648.68 315.32 649.85 353.59 629.38 377.39 C 608.51 404.44 566.34 410.65 538.88 390.08 C 526.57 384.41 525.78 366.86 512.84 362.46 C 500.20 365.17 498.79 381.33 488.93 387.92 C 456.38 415.68 400.91 401.04 385.67 361.32 C 375.80 338.83 380.48 310.26 398.21 293.09 C 404.96 294.76 411.22 298.06 417.92 300.00 C 392.74 320.78 400.11 365.82 430.68 377.33 C 455.91 388.82 487.88 372.72 494.47 345.98 C 497.61 348.86 500.07 352.37 503.12 355.35 C 504.32 323.29 475.68 299.04 447.57 289.45 C 428.71 281.82 408.16 280.48 388.93 274.22 M 376.89 394.10 C 380.43 412.59 391.00 430.77 386.07 450.05 C 367.87 509.75 377.89 579.67 419.61 627.42 C 421.12 629.73 423.75 628.67 425.86 628.01 C 407.90 592.14 391.91 551.21 401.61 510.61 C 405.96 489.07 418.46 470.56 432.54 454.21 C 420.38 450.04 401.93 444.61 400.71 429.84 C 420.95 439.84 444.03 438.88 465.17 445.54 C 445.58 458.50 427.12 475.22 419.00 497.99 C 404.98 530.66 410.59 569.97 431.64 598.33 C 443.87 615.62 461.74 627.59 476.07 642.94 C 490.45 656.56 500.66 673.64 512.72 689.11 C 532.14 655.06 563.03 630.56 589.74 602.74 C 624.26 562.64 620.17 496.61 580.57 461.42 C 574.10 455.14 566.06 450.93 558.96 445.47 C 580.31 438.86 603.50 439.65 624.10 430.07 C 622.23 444.46 604.56 450.07 592.41 454.21 C 616.46 480.95 631.10 517.63 624.88 553.86 C 620.67 579.78 610.62 604.23 599.08 627.66 C 600.38 628.26 601.68 628.86 603.00 629.46 C 646.06 582.39 656.51 511.97 639.19 451.82 C 632.94 432.05 644.19 412.98 647.91 393.94 C 631.96 413.38 608.06 425.35 582.98 426.84 C 561.24 428.41 535.47 431.23 520.62 448.97 C 572.95 452.86 611.98 509.53 596.73 559.79 C 584.66 609.39 525.05 639.07 478.42 617.56 C 441.07 602.40 418.32 559.09 426.71 519.71 C 433.37 482.43 466.37 452.40 504.05 448.88 C 490.82 432.64 467.75 429.19 448.04 427.20 C 420.93 427.02 394.03 415.40 376.89 394.10 M 501.05 463.09 C 497.57 469.34 499.18 479.61 490.31 481.33 C 484.65 485.74 478.43 484.00 473.49 479.50 C 466.00 472.43 460.16 483.47 454.92 487.91 C 445.88 495.68 464.46 503.59 457.41 512.39 C 456.15 522.42 445.55 522.29 438.14 525.26 C 436.94 532.67 436.91 540.26 438.14 547.68 C 444.80 550.83 455.14 550.20 456.82 559.22 C 462.86 567.09 453.98 573.58 452.01 580.94 C 455.89 587.22 461.43 593.23 467.96 596.76 C 475.11 594.31 481.70 585.03 489.44 591.49 C 498.95 592.97 497.78 603.21 501.06 609.95 C 507.94 612.76 516.20 612.14 523.35 610.46 C 527.53 604.31 525.33 593.40 534.67 591.67 C 542.69 585.18 549.68 593.98 557.01 596.79 C 563.12 593.01 568.32 587.43 572.65 581.73 C 572.02 574.17 561.44 567.78 567.65 559.79 C 568.94 550.06 579.90 551.34 586.44 547.41 C 587.89 540.31 587.86 532.73 586.38 525.64 C 580.26 521.45 569.27 523.45 567.90 514.04 C 563.65 508.31 566.91 502.52 570.62 497.61 C 576.58 490.32 565.95 485.10 561.95 480.09 C 554.08 470.41 545.70 489.66 536.78 482.26 C 526.67 480.73 526.29 470.21 523.56 462.41 C 516.18 461.38 508.13 460.40 501.05 463.09 M 424.12 647.97 C 419.51 641.97 409.06 640.88 405.72 648.71 C 400.57 662.06 406.64 682.41 421.72 685.94 C 424.04 679.13 418.55 670.61 423.10 663.68 C 426.45 671.44 428.51 683.52 438.57 684.79 C 441.71 678.15 438.19 669.08 443.49 662.80 C 445.28 671.53 446.40 682.26 454.63 687.45 C 460.97 689.39 458.37 679.95 459.45 676.35 C 459.23 666.76 469.89 658.56 464.90 649.06 C 461.22 642.75 452.79 643.67 447.95 648.03 C 446.32 633.68 426.76 634.70 424.12 647.97 M 576.76 647.81 C 570.52 642.00 558.20 644.43 558.19 654.07 C 559.43 663.00 566.06 670.62 565.69 680.04 C 565.84 683.01 565.53 689.76 570.32 687.31 C 578.39 681.98 579.42 671.47 581.23 662.81 C 585.58 669.11 584.58 677.05 584.80 684.28 C 595.58 685.38 598.41 671.49 601.25 663.60 C 605.44 670.20 602.54 678.17 601.66 685.28 C 616.94 684.76 623.37 663.29 619.67 650.38 C 617.35 641.19 605.59 641.05 600.40 647.82 C 598.08 634.43 578.78 634.06 576.76 647.81 Z" />
<path fill="#f6f7fc" opacity="1.00" d=" M 431.89 237.35 C 480.72 210.45 543.65 210.45 592.48 237.36 C 569.18 244.44 542.66 250.32 527.54 271.55 C 520.90 279.10 517.94 288.90 512.36 297.11 C 504.38 282.35 496.35 266.59 481.87 257.11 C 467.41 245.58 448.71 243.37 431.89 237.35 Z" />
<path fill="#f6f7fc" opacity="1.00" d=" M 120.83 262.81 C 121.84 258.06 127.05 260.58 127.90 264.05 C 142.42 296.17 169.53 320.44 198.36 339.67 C 236.80 365.55 288.41 379.81 307.99 426.19 C 280.96 414.90 252.23 408.40 223.08 405.83 C 179.87 403.27 139.48 373.47 125.96 332.10 C 118.86 309.88 116.95 285.82 120.83 262.81 Z" />
<path fill="#f6f7fc" opacity="1.00" d=" M 895.75 265.71 C 896.72 262.47 901.52 257.08 903.55 262.50 C 907.32 284.02 905.68 306.29 900.20 327.39 C 889.88 362.20 861.49 391.46 826.34 401.27 C 789.72 408.82 751.28 409.76 716.86 426.14 C 734.68 382.40 782.14 366.99 819.18 344.17 C 850.16 324.43 879.99 299.70 895.75 265.71 Z" />
<path fill="#f6f7fc" opacity="1.00" d=" M 413.94 330.95 C 414.99 317.31 427.57 299.09 442.98 307.15 C 421.09 313.53 417.32 346.76 438.33 356.66 C 458.32 367.72 481.92 347.00 476.95 325.58 C 480.11 328.39 484.51 331.27 484.66 335.94 C 484.25 356.26 463.40 373.53 443.34 369.56 C 425.67 366.39 411.94 348.98 413.94 330.95 Z" />
<path fill="#f6f7fc" opacity="1.00" d=" M 581.98 307.16 C 595.64 299.92 607.37 314.58 610.34 326.59 C 615.44 346.42 599.69 367.14 579.94 369.87 C 560.70 372.45 540.92 356.54 540.12 336.98 C 539.45 331.58 544.68 328.45 547.88 325.00 C 546.15 336.73 549.82 350.21 560.92 356.09 C 575.18 364.83 596.16 356.21 599.86 339.83 C 603.97 326.17 594.83 311.93 581.98 307.16 Z" />
<path fill="#f6f7fc" opacity="1.00" d=" M 454.40 315.39 C 462.16 313.58 469.30 323.23 465.11 330.09 C 461.59 336.89 450.53 336.71 447.27 329.77 C 443.97 324.06 447.95 316.30 454.40 315.39 Z" />
<path fill="#f6f7fc" opacity="1.00" d=" M 566.44 315.43 C 573.70 313.56 581.24 321.89 577.90 328.85 C 575.41 335.82 564.98 337.41 560.58 331.43 C 555.81 326.00 559.47 316.67 566.44 315.43 Z" />
<path fill="#f6f7fc" opacity="1.00" d=" M 131.52 399.45 C 130.64 395.15 125.88 389.20 130.74 385.90 C 154.04 401.75 180.52 412.73 208.27 417.69 C 253.09 425.20 305.38 426.18 337.19 463.86 C 323.00 459.68 307.95 457.90 293.27 460.30 C 268.81 464.07 246.49 479.02 221.00 476.23 C 178.38 473.11 145.18 438.03 131.52 399.45 Z" />
<path fill="#f6f7fc" opacity="1.00" d=" M 892.58 386.76 C 899.58 386.40 894.16 396.15 892.96 399.91 C 878.31 442.33 838.28 480.08 790.98 476.18 C 769.70 474.61 750.99 462.64 729.92 460.06 C 715.53 457.95 700.92 460.01 687.03 463.91 C 698.48 451.92 712.08 441.73 727.55 435.57 C 759.40 421.80 795.01 424.02 828.10 415.11 C 851.20 409.86 872.81 399.62 892.58 386.76 Z" />
<path fill="#f6f7fc" opacity="1.00" d=" M 246.22 489.25 C 265.16 484.86 282.79 475.61 302.24 473.36 C 320.44 471.61 339.15 476.70 354.24 486.94 C 332.83 489.11 318.08 505.58 303.72 519.73 C 287.64 534.62 264.44 541.55 242.90 537.10 C 221.79 533.09 203.85 519.93 188.74 505.26 C 185.96 502.43 181.86 499.15 183.80 494.70 C 204.74 496.30 225.87 494.55 246.22 489.25 Z" />
<path fill="#f6f7fc" opacity="1.00" d=" M 670.48 486.91 C 686.96 475.54 708.09 470.65 727.86 474.13 C 761.75 482.94 795.12 498.40 831.05 494.95 C 834.76 494.39 843.41 493.18 840.84 499.60 C 817.87 527.37 778.49 548.38 742.55 533.47 C 714.91 523.30 701.87 489.52 670.48 486.91 Z" />
<path fill="#f6f7fc" opacity="1.00" d=" M 509.47 494.47 C 538.48 491.23 562.56 523.35 552.37 550.38 C 543.45 580.74 499.29 589.18 479.98 564.01 C 457.40 539.70 476.13 495.00 509.47 494.47 M 506.36 508.38 C 486.66 512.04 477.05 538.00 489.29 553.73 C 499.49 569.12 524.52 568.96 535.04 554.03 C 551.29 534.52 531.15 501.80 506.36 508.38 Z" />
<path fill="#f6f7fc" opacity="1.00" d=" M 356.91 785.11 C 349.75 749.88 364.16 714.02 385.86 686.69 C 393.75 699.29 405.96 711.06 421.74 711.32 C 414.15 729.69 406.83 748.19 401.24 767.28 C 396.32 783.65 378.76 790.87 363.56 794.47 C 358.01 795.97 357.77 788.75 356.91 785.11 Z" />
<path fill="#f6f7fc" opacity="1.00" d=" M 603.11 711.39 C 618.71 710.68 630.83 699.30 638.79 686.79 C 659.24 713.12 673.71 746.54 668.42 780.46 C 667.20 785.06 667.88 791.77 663.65 794.59 C 647.23 791.74 627.71 783.72 623.06 765.91 C 617.80 747.26 610.41 729.32 603.11 711.39 Z" />
<path fill="#f6f7fc" opacity="1.00" d=" M 437.69 709.56 C 447.54 710.85 457.86 715.33 467.98 710.92 C 471.02 714.11 474.40 717.90 473.62 722.69 C 471.41 747.77 469.13 772.85 467.73 797.99 C 467.77 818.95 450.92 834.64 433.57 843.56 C 429.75 845.24 425.11 849.43 420.97 847.10 C 407.45 826.16 403.69 799.14 411.31 775.33 C 418.83 752.99 427.75 730.83 437.69 709.56 Z" />
<path fill="#f6f7fc" opacity="1.00" d=" M 561.20 711.79 C 570.19 715.19 578.77 710.37 587.50 709.14 C 598.28 737.33 613.66 764.58 617.13 794.97 C 618.34 813.34 613.83 833.13 602.65 847.88 C 584.04 842.27 564.86 828.76 558.79 809.28 C 555.52 780.82 554.96 752.01 551.40 723.52 C 550.19 717.89 554.35 708.69 561.20 711.79 Z" />
<path fill="#f6f7fc" opacity="1.00" d=" M 486.19 732.97 C 499.59 754.63 506.98 779.42 512.57 804.09 C 517.46 779.24 525.69 754.74 538.65 732.93 C 541.48 752.94 542.73 773.13 544.59 793.25 C 547.68 825.46 536.68 859.91 512.14 881.62 C 487.85 859.00 476.69 824.47 480.60 791.76 C 482.28 772.15 483.49 752.47 486.19 732.97 Z" />
</g>
</svg>
